<svg width="32" height="32" viewBox="0 0 32 32" fill="none" xmlns="http://www.w3.org/2000/svg">
<circle r="2.00437" transform="matrix(0.834931 -0.550355 0.541399 0.840766 15.9526 2.78833)" fill="#B20B1F"/>
<rect x="15.3319" y="3.97382" width="1.33624" height="2.67249" rx="0.668122" fill="#B20B1F"/>
<circle r="2.00437" transform="matrix(-0.834931 0.550355 -0.541399 -0.840766 16.0475 29.2117)" fill="#B20B1F"/>
<rect x="16.6682" y="28.0262" width="1.33624" height="2.67249" rx="0.668122" transform="rotate(-180 16.6682 28.0262)" fill="#B20B1F"/>
<circle r="2.00437" transform="matrix(-0.550355 -0.834931 0.840766 -0.541399 2.78827 16.0474)" fill="#F54157"/>
<rect x="3.97375" y="16.6682" width="1.33624" height="2.67249" rx="0.668122" transform="rotate(-90 3.97375 16.6682)" fill="#F54157"/>
<circle r="2.00437" transform="matrix(0.550355 0.834931 -0.840766 0.541399 29.2117 15.9526)" fill="#F54157"/>
<rect x="28.0262" y="15.3318" width="1.33624" height="2.67249" rx="0.668122" transform="rotate(90 28.0262 15.3318)" fill="#F54157"/>
<ellipse rx="2.00437" ry="2.00436" transform="matrix(0.894087 0.447894 -0.457425 0.889248 27.4178 9.35309)" fill="#B20B1F"/>
<rect x="26.0809" y="9.40826" width="1.33624" height="2.67249" rx="0.668122" transform="rotate(60 26.0809 9.40826)" fill="#B20B1F"/>
<ellipse rx="2.00437" ry="2.00436" transform="matrix(-0.894087 -0.447894 0.457425 -0.889248 4.58192 22.647)" fill="#B20B1F"/>
<rect x="5.91907" y="22.5917" width="1.33624" height="2.67249" rx="0.668122" transform="rotate(-120 5.91907 22.5917)" fill="#B20B1F"/>
<ellipse rx="2.00437" ry="2.00437" transform="matrix(0.998249 -0.0591559 0.0484824 0.998824 22.5647 4.53462)" fill="#F54157"/>
<rect x="21.4344" y="5.25092" width="1.33624" height="2.67249" rx="0.668122" transform="rotate(30 21.4344 5.25092)" fill="#F54157"/>
<ellipse rx="2.00437" ry="2.00436" transform="matrix(-0.998249 0.0591559 -0.0484824 -0.998824 9.43529 27.4654)" fill="#F54157"/>
<rect x="10.5656" y="26.749" width="1.33624" height="2.67249" rx="0.668122" transform="rotate(-150 10.5656 26.749)" fill="#F54157"/>
<ellipse rx="2.00437" ry="2.00436" transform="matrix(-0.0591559 -0.998249 0.998824 -0.0484824 4.53468 9.43523)" fill="#B20B1F"/>
<rect x="5.25085" y="10.5655" width="1.33624" height="2.67249" rx="0.668122" transform="rotate(-60 5.25085 10.5655)" fill="#B20B1F"/>
<circle r="2.00437" transform="matrix(0.0591559 0.998249 -0.998824 0.0484824 27.4653 22.5648)" fill="#B20B1F"/>
<rect x="26.749" y="21.4345" width="1.33624" height="2.67249" rx="0.668122" transform="rotate(120 26.749 21.4345)" fill="#B20B1F"/>
<circle r="2.00437" transform="matrix(0.447894 -0.894087 0.889248 0.457425 9.35309 4.58205)" fill="#F54157"/>
<rect x="9.40833" y="5.91907" width="1.33624" height="2.67249" rx="0.668122" transform="rotate(-30 9.40833 5.91907)" fill="#F54157"/>
<ellipse rx="2.00437" ry="2.00436" transform="matrix(-0.447894 0.894087 -0.889248 -0.457425 22.6469 27.418)" fill="#F54157"/>
<rect x="22.5917" y="26.0809" width="1.33624" height="2.67249" rx="0.668122" transform="rotate(150 22.5917 26.0809)" fill="#F54157"/>
<circle cx="16.1337" cy="16.0349" r="10.6899" fill="#B30B1F"/>
<circle cx="16.1337" cy="16.0349" r="10.6899" fill="url(#paint0_linear)"/>
<path d="M15.981 5.34495C14.5972 5.34495 13.227 5.62146 11.9485 6.15868C10.6701 6.6959 9.50848 7.48332 8.53001 8.47597C7.55154 9.46862 6.77537 10.6471 6.24582 11.944C5.71628 13.241 5.44373 14.6311 5.44373 16.0349C5.44373 17.4387 5.71628 18.8288 6.24582 20.1258C6.77537 21.4227 7.55154 22.6012 8.53001 23.5938C9.50848 24.5865 10.6701 25.3739 11.9485 25.9111C13.227 26.4483 14.5972 26.7249 15.981 26.7249L15.981 16.0349L15.981 5.34495Z" fill="#B81C1C"/>
<defs>
<linearGradient id="paint0_linear" x1="16.1337" y1="5.34497" x2="16.1337" y2="26.7249" gradientUnits="userSpaceOnUse">
<stop stop-color="#BC0202"/>
<stop offset="1" stop-color="#2D0707" stop-opacity="0"/>
</linearGradient>
</defs>
</svg>
